<?xml version="1.0" encoding="utf-8"?>
<!-- Generator: Adobe Illustrator 17.0.0, SVG Export Plug-In . SVG Version: 6.00 Build 0)  -->
<!DOCTYPE svg PUBLIC "-//W3C//DTD SVG 1.1//EN" "http://www.w3.org/Graphics/SVG/1.1/DTD/svg11.dtd">
<svg version="1.1" id="Capa_1" xmlns="http://www.w3.org/2000/svg" xmlns:xlink="http://www.w3.org/1999/xlink" x="0px" y="0px"
	 width="51.333px" height="50.667px" viewBox="0 0 51.333 50.667" enable-background="new 0 0 51.333 50.667" xml:space="preserve">
<image overflow="visible" width="1120" height="186" xlink:href="../Screen Shot 2015-11-02 at 7.16.51 PM.png"  transform="matrix(0.1926 0 0 0.1926 -78.8222 155.9207)">
</image>
<image overflow="visible" width="654" height="64" xlink:href="../Screen Shot 2015-11-02 at 7.20.50 PM.png"  transform="matrix(0.3795 0 0 0.3795 -101.5893 201.1917)">
</image>
<g>
	<path fill="#EF7954" d="M49.618,24.69c0,0.71-0.031,1.414-0.091,2.108c-0.142,1.641-0.448,3.234-0.903,4.765v0.002
		c-0.014,0.047-0.027,0.092-0.041,0.138c-0.074,0.242-0.15,0.484-0.232,0.723c-2.646,7.829-9.198,13.858-17.338,15.767
		c-0.857,0.201-1.733,0.357-2.623,0.464c-0.093,0.011-0.189,0.022-0.283,0.032c-0.864,0.094-1.741,0.142-2.63,0.142
		c-13.334,0-24.143-10.809-24.143-24.141S12.143,0.548,25.477,0.548c12.083,0,22.094,8.878,23.864,20.467
		C49.524,22.213,49.618,23.44,49.618,24.69z"/>
	<path fill="#AB5C46" d="M48.625,31.563C48.482,33.204,49.079,30.032,48.625,31.563v0.002c-0.014,0.047-0.027,0.092-0.041,0.138
		c-0.074,0.242-0.15,0.484-0.232,0.723c-2.646,7.829-9.198,13.858-17.338,15.767l-9.304-9.729l3.077-19.292l6.125-5.869
		L48.625,31.563z"/>
	<path fill="#F1EFDE" d="M26.965,21.625c1.328,0,2.626,0,3.988,0c-0.167,1.454-0.327,2.858-0.491,4.281c-1.191,0-2.327,0-3.519,0
		c0,4.198,0,8.37,0,12.559c-1.769,0-3.482,0-5.235,0c0-4.183,0-8.349,0-12.546c-0.858,0-1.677,0-2.522,0c0-1.428,0-2.824,0-4.274
		c0.308,0,0.628-0.001,0.949,0c0.417,0.001,0.834-0.004,1.251,0.008c0.252,0.007,0.322-0.094,0.32-0.342
		c-0.007-1.139,0.01-2.278,0.012-3.416c0.006-2.434,1.515-4.197,3.942-4.466c1.207-0.134,2.434-0.094,3.652-0.124
		c0.526-0.013,1.053-0.002,1.599-0.002c0,1.482,0,2.932,0,4.423c-0.098,0.004-0.205,0.013-0.311,0.013
		c-0.793,0.001-1.587-0.001-2.38,0.001c-0.76,0.002-1.256,0.499-1.256,1.254c0,0.763,0,1.526,0,2.289
		C26.965,21.383,26.965,21.482,26.965,21.625z"/>
</g>
</svg>
