<?xml version="1.0" encoding="utf-8"?>
<!-- Generator: Adobe Illustrator 17.0.0, SVG Export Plug-In . SVG Version: 6.00 Build 0)  -->
<!DOCTYPE svg PUBLIC "-//W3C//DTD SVG 1.1//EN" "http://www.w3.org/Graphics/SVG/1.1/DTD/svg11.dtd">
<svg version="1.1" id="Capa_1" xmlns="http://www.w3.org/2000/svg" xmlns:xlink="http://www.w3.org/1999/xlink" x="0px" y="0px"
	 width="200.667px" height="231.333px" viewBox="0 0 200.667 231.333" enable-background="new 0 0 200.667 231.333"
	 xml:space="preserve">
<path fill="#58395A" d="M99.27,5.909c16.046,0,32.102,0.342,48.134-0.125c10.153-0.295,14.613,3.407,14.491,13.932
	c-0.351,30.083-0.353,60.174,0.007,90.256c0.121,10.105-3.457,14.683-13.919,14.587c-31.588-0.29-63.182-0.293-94.77-0.007
	c-10.017,0.091-14.559-3.35-14.409-13.988c0.428-30.081,0.479-60.176-0.021-90.254C38.593,8.856,43.444,5.372,54.146,5.768
	C69.168,6.325,84.227,5.909,99.27,5.909z M145.946,86.431c0-21.94,0-42.571,0-63.202c-31.292,0-61.407,0-91.464,0
	c0,21.73,0,42.051,0,63.202C85.117,86.431,114.921,86.431,145.946,86.431z"/>
<g>
	<path fill="#58395A" d="M48.568,193.319c-4.001-0.266-7.202-2-9.602-5.2c-1.201,3.869-2.4,7.567-3.601,11.102
		c-1.201,3.531-2.27,6.731-3.201,9.602c-0.933,2.866-1.731,5.266-2.4,7.202c-0.667,1.932-1.133,3.232-1.401,3.9H12.561
		c0.799-2.27,1.835-5.169,3.1-8.702c1.269-3.535,2.67-7.369,4.201-11.502c1.535-4.135,3.102-8.432,4.701-12.902
		c1.601-4.468,3.201-8.902,4.802-13.304c3.601-10.268,7.4-21.135,11.401-32.607H54.77c-0.134,0.801-0.4,1.669-0.801,2.6
		c-0.268,0.801-0.601,1.735-0.999,2.8c-0.4,1.069-0.801,2.336-1.201,3.801c3.601-3.733,7.332-6.632,11.203-8.702
		c3.865-2.066,7.332-2.431,10.401-1.1c2.134,0.935,3.867,2.435,5.202,4.501c1.331,2.07,2.167,4.536,2.501,7.402
		c0.33,2.868,0.099,6.102-0.702,9.701c-0.799,3.601-2.268,7.402-4.4,11.403c-1.601,3.201-3.471,6.071-5.603,8.601
		c3.601-1.599,7.068-3.9,10.403-6.901c3.333-3,6.067-5.632,8.203-7.902c1.199-1.201,2.4-2.033,3.601-2.501
		c1.199-0.466,2.165-0.601,2.899-0.4c0.733,0.2,1.133,0.735,1.201,1.601c0.066,0.869-0.499,2.101-1.7,3.7
		c-1.201,1.601-3.269,3.869-6.201,6.802c-2.934,2.934-6.436,5.77-10.502,8.502c-4.071,2.734-8.603,5.002-13.603,6.802
		c-5.002,1.802-10.103,2.431-15.304,1.901c-0.27,0-0.435-0.031-0.501-0.099C48.8,193.355,48.701,193.319,48.568,193.319z
		 M45.568,170.314c-2.27,4.802-3,8.502-2.202,11.102c0.801,2.6,2.532,3.77,5.202,3.502c2.266-0.132,4.567-1.467,6.901-4.001
		c2.332-2.532,4.433-5.867,6.302-10.002c1.065-2.402,2.033-4.802,2.901-7.202c0.865-2.4,1.5-4.602,1.901-6.601
		c0.398-2.002,0.565-3.7,0.499-5.101c-0.068-1.401-0.435-2.233-1.1-2.501c-1.469-0.53-3.17-0.2-5.101,1.001
		c-1.936,1.201-3.869,2.868-5.803,5c-1.934,2.136-3.768,4.536-5.499,7.202C47.834,165.382,46.499,167.915,45.568,170.314z"/>
	<path fill="#58395A" d="M119.783,167.114c1.465-1.465,2.8-2.4,4.001-2.8c1.199-0.4,2.099-0.4,2.699,0
		c0.601,0.4,0.867,1.069,0.801,2c-0.068,0.935-0.57,2.002-1.5,3.201c-3.469,4.536-7.07,8.537-10.803,12.004
		c-3.201,3.069-6.802,5.836-10.803,8.302c-3.999,2.468-8.135,3.7-12.402,3.7c-3.067,0-5.167-0.832-6.3-2.501
		c-1.133-1.665-1.632-3.731-1.502-6.201c0.136-2.466,0.671-5.167,1.601-8.102c0.935-2.932,1.936-5.733,3-8.401
		c2.666-7.068,4.833-12.734,6.502-17.004c1.665-4.268,2.831-7.268,3.5-9.003c2.4,3.071,5.733,4.602,10.002,4.602
		c1.331,0,2.332-0.066,3-0.2l-7.202,21.206c-1.069,3.201-2.035,6.1-2.899,8.702c-0.869,2.6-0.77,3.9,0.299,3.9
		c1.201,0,2.501-0.4,3.902-1.201c1.399-0.801,2.899-1.865,4.501-3.201c1.599-1.331,3.201-2.8,4.8-4.4
		C116.583,170.114,118.182,168.583,119.783,167.114z M118.182,133.306c0,2.67-0.935,4.936-2.8,6.802c-1.87,1.87-4.135,2.8-6.802,2.8
		c-2.668,0-4.936-0.931-6.802-2.8c-1.87-1.865-2.8-4.131-2.8-6.802c0-2.666,0.931-4.932,2.8-6.802c1.865-1.865,4.133-2.8,6.802-2.8
		c2.666,0,4.932,0.935,6.802,2.8C117.247,128.374,118.182,130.64,118.182,133.306z"/>
	<path fill="#58395A" d="M164.99,167.114c1.069-1.201,2.204-2.033,3.401-2.501c1.205-0.466,2.204-0.601,3.005-0.4
		c0.801,0.2,1.23,0.735,1.296,1.601c0.066,0.869-0.495,2.101-1.7,3.7c-1.197,1.601-3.029,3.801-5.497,6.601
		c-2.472,2.8-5.339,5.57-8.605,8.302c-3.269,2.736-6.802,5.035-10.601,6.903c-3.801,1.868-7.503,2.6-11.104,2.2
		c-4.135-0.4-7.435-1.967-9.901-4.701c-2.47-2.732-4.171-6.032-5.101-9.903c-0.931-3.865-1.032-8.032-0.301-12.501
		c0.733-4.468,2.233-8.568,4.503-12.303c2.266-3.733,5.301-6.833,9.1-9.303c3.801-2.466,8.368-3.7,13.704-3.7
		c3.731,0,6.7,0.9,8.902,2.699c2.2,1.802,3.601,4.001,4.199,6.601c0.601,2.602,0.501,5.301-0.299,8.102
		c-0.801,2.802-2.336,5.202-4.602,7.202c-1.599,1.335-3.17,1.901-4.701,1.7c-1.533-0.2-2.835-0.73-3.9-1.599
		c-1.069-0.867-1.835-1.865-2.301-3c-0.468-1.133-0.369-1.967,0.301-2.501c2.132-1.865,3.599-3.966,4.4-6.302
		c0.801-2.332,0.466-4.1-0.999-5.301c-1.071-0.799-2.301-0.9-3.702-0.299c-1.399,0.601-2.734,1.7-4.001,3.302
		c-1.269,1.599-2.468,3.535-3.601,5.801c-1.133,2.268-1.901,4.536-2.299,6.802c-0.801,5.469-0.534,9.771,0.799,12.902
		c1.333,3.137,3.667,4.637,7.002,4.503c2.132,0,4.268-0.466,6.401-1.401c2.132-0.931,4.166-2.132,6.102-3.601
		c1.932-1.465,3.733-3.067,5.4-4.802C161.957,170.182,163.525,168.583,164.99,167.114z"/>
</g>
<g>
	<path fill="#CCE6DC" d="M52.723,193.166c-4.001-0.264-7.202-1.998-9.602-5.2c-1.201,3.871-2.4,7.569-3.601,11.102
		s-2.27,6.731-3.201,9.604c-0.933,2.864-1.731,5.266-2.4,7.202c-0.667,1.932-1.133,3.232-1.401,3.9H16.716
		c0.799-2.27,1.835-5.171,3.1-8.704c1.269-3.533,2.67-7.367,4.201-11.502c1.535-4.135,3.102-8.432,4.701-12.9
		c1.601-4.468,3.201-8.902,4.802-13.304c3.601-10.268,7.4-21.135,11.401-32.607h14.004c-0.134,0.801-0.4,1.669-0.801,2.6
		c-0.268,0.801-0.601,1.735-0.999,2.8c-0.4,1.069-0.801,2.336-1.201,3.801c3.601-3.733,7.332-6.632,11.203-8.702
		c3.865-2.066,7.332-2.431,10.401-1.1c2.134,0.935,3.867,2.435,5.202,4.501c1.331,2.07,2.167,4.536,2.501,7.402
		c0.33,2.868,0.099,6.102-0.702,9.701c-0.799,3.601-2.268,7.402-4.4,11.403c-1.601,3.201-3.471,6.071-5.603,8.601
		c3.601-1.599,7.068-3.9,10.403-6.901c3.333-3,6.067-5.632,8.203-7.902c1.199-1.201,2.4-2.033,3.601-2.501
		c1.199-0.466,2.165-0.601,2.899-0.4c0.733,0.2,1.133,0.735,1.201,1.601c0.066,0.869-0.499,2.101-1.7,3.7
		c-1.201,1.601-3.269,3.869-6.201,6.802c-2.934,2.934-6.436,5.77-10.502,8.502c-4.071,2.734-8.603,5-13.603,6.8
		c-5.002,1.804-10.103,2.431-15.304,1.903c-0.27,0-0.435-0.033-0.501-0.099C52.954,193.203,52.855,193.166,52.723,193.166z
		 M49.723,170.163c-2.27,4.802-3,8.502-2.202,11.102c0.801,2.6,2.532,3.77,5.202,3.502c2.266-0.132,4.567-1.467,6.901-4.001
		c2.332-2.532,4.433-5.867,6.302-10.002c1.065-2.402,2.033-4.802,2.901-7.202c0.865-2.4,1.5-4.602,1.901-6.601
		c0.398-2.002,0.565-3.7,0.499-5.101c-0.068-1.401-0.435-2.233-1.1-2.501c-1.469-0.53-3.17-0.2-5.101,1.001
		c-1.936,1.201-3.869,2.868-5.803,5c-1.934,2.136-3.768,4.536-5.499,7.202C51.989,165.231,50.653,167.763,49.723,170.163z"/>
	<path fill="#CCE6DC" d="M123.938,166.963c1.465-1.465,2.798-2.4,3.999-2.8c1.201-0.4,2.101-0.4,2.699,0
		c0.603,0.4,0.867,1.069,0.801,2c-0.066,0.935-0.57,2.002-1.498,3.201c-3.471,4.536-7.07,8.537-10.803,12.004
		c-3.201,3.069-6.802,5.836-10.803,8.3c-3.999,2.468-8.135,3.702-12.402,3.702c-3.067,0-5.167-0.834-6.3-2.501
		s-1.632-3.731-1.502-6.201c0.136-2.466,0.671-5.167,1.601-8.102c0.935-2.932,1.936-5.733,3-8.401
		c2.666-7.068,4.833-12.734,6.502-17.004c1.665-4.268,2.831-7.268,3.5-9.003c2.4,3.071,5.733,4.602,10.002,4.602
		c1.331,0,2.332-0.066,3-0.2l-7.202,21.206c-1.069,3.201-2.035,6.1-2.899,8.702c-0.869,2.6-0.77,3.9,0.299,3.9
		c1.201,0,2.501-0.4,3.902-1.201c1.399-0.801,2.899-1.865,4.501-3.201c1.599-1.331,3.201-2.8,4.8-4.4
		C120.735,169.963,122.337,168.432,123.938,166.963z M122.337,133.155c0,2.67-0.937,4.936-2.8,6.802c-1.87,1.87-4.135,2.8-6.802,2.8
		c-2.668,0-4.936-0.931-6.802-2.8c-1.87-1.865-2.8-4.131-2.8-6.802c0-2.666,0.931-4.932,2.8-6.802c1.865-1.865,4.133-2.8,6.802-2.8
		c2.666,0,4.932,0.935,6.802,2.8C121.4,128.223,122.337,130.488,122.337,133.155z"/>
	<path fill="#CCE6DC" d="M169.143,166.963c1.069-1.201,2.204-2.033,3.401-2.501c1.205-0.466,2.204-0.601,3.005-0.4
		c0.801,0.2,1.23,0.735,1.296,1.601c0.066,0.869-0.495,2.101-1.7,3.7c-1.197,1.601-3.029,3.801-5.497,6.601
		c-2.472,2.8-5.336,5.57-8.605,8.302c-3.269,2.736-6.802,5.033-10.599,6.903c-3.801,1.865-7.503,2.6-11.106,2.2
		c-4.135-0.4-7.433-1.969-9.901-4.701c-2.468-2.732-4.168-6.032-5.101-9.903c-0.929-3.865-1.032-8.032-0.301-12.501
		c0.735-4.468,2.233-8.568,4.503-12.303c2.266-3.733,5.303-6.833,9.1-9.303c3.801-2.466,8.37-3.7,13.706-3.7
		c3.731,0,6.698,0.9,8.902,2.699c2.2,1.802,3.599,4.001,4.197,6.601c0.603,2.602,0.504,5.301-0.297,8.102
		c-0.801,2.802-2.336,5.202-4.602,7.202c-1.601,1.335-3.17,1.901-4.701,1.7c-1.535-0.2-2.835-0.731-3.9-1.599
		c-1.069-0.867-1.837-1.865-2.303-3c-0.466-1.133-0.367-1.967,0.301-2.501c2.134-1.865,3.599-3.966,4.4-6.302
		c0.801-2.332,0.466-4.1-0.999-5.301c-1.069-0.799-2.299-0.9-3.702-0.299c-1.399,0.601-2.732,1.7-3.999,3.302
		c-1.271,1.599-2.468,3.535-3.603,5.801c-1.131,2.268-1.899,4.536-2.299,6.802c-0.801,5.469-0.532,9.771,0.801,12.902
		c1.333,3.137,3.665,4.637,7,4.503c2.134,0,4.268-0.466,6.401-1.401c2.134-0.931,4.168-2.132,6.104-3.601
		c1.932-1.465,3.731-3.066,5.398-4.802C166.109,170.031,167.678,168.432,169.143,166.963z"/>
</g>
<path fill="#FFFFFF" d="M146.808,82.9c-30.251,0-59.311,0-89.182,0c0-20.623,0-40.437,0-61.625c29.307,0,58.67,0,89.182,0
	C146.808,41.391,146.808,61.508,146.808,82.9z"/>
<path fill="#CCE6DC" d="M101.297,4.387c15.646,0,31.301,0.333,46.933-0.122c9.9-0.288,14.248,3.322,14.129,13.584
	c-0.342,29.332-0.344,58.672,0.007,88.004c0.118,9.853-3.371,14.317-13.572,14.223c-30.8-0.283-61.605-0.286-92.405-0.007
	c-9.767,0.089-14.196-3.266-14.049-13.639c0.417-29.33,0.467-58.674-0.02-88.002C42.134,7.261,46.864,3.864,57.299,4.25
	C71.946,4.793,86.629,4.387,101.297,4.387z M146.808,82.9c0-21.393,0-41.509,0-61.625c-30.511,0-59.875,0-89.182,0
	c0,21.188,0,41.002,0,61.625C87.497,82.9,116.557,82.9,146.808,82.9z"/>
<g>
	<g>
		<g>
			<path fill="#58395A" d="M97.548,35.727c0.881-1.163,2.289-1.821,3.782-1.807c0.067,0,0.134,0.003,0.204,0.01l0.004,2.029
				c-0.964-0.089-1.851,0.28-2.398,1c-0.511,0.673-0.61,1.51-0.27,2.3l-1.843,0.804C96.398,38.603,96.593,36.982,97.548,35.727z"/>
		</g>
	</g>
</g>
<g>
	<g>
		<g>
			<path fill="#58395A" d="M105.126,35.714c-0.886-1.16-2.297-1.812-3.789-1.793c-0.067,0-0.134,0.004-0.204,0.011l0.004,2.029
				c0.964-0.093,1.852,0.274,2.402,0.992c0.513,0.671,0.616,1.508,0.279,2.299l1.846,0.797
				C106.286,38.585,106.086,36.965,105.126,35.714z"/>
		</g>
	</g>
</g>
<g>
	<g>
		<g>
			<path fill="#58395A" d="M100.774,42.059l-9.831,7.506c0.095,0.107,0.174,0.227,0.237,0.356c0.827,0.011,1.653,0.025,2.48,0.053
				l8.299-6.336L100.774,42.059z"/>
		</g>
	</g>
</g>
<g>
	<g>
		<g>
			<polygon fill="#58395A" points="101.251,44.147 100.066,42.569 103.643,39.838 104.782,41.435 			"/>
		</g>
	</g>
</g>
<g>
	<g>
		<g>
			<polygon fill="#58395A" points="112.457,49.975 102.018,42.067 100.84,43.649 109.198,49.981 			"/>
		</g>
	</g>
</g>
<g>
	<g>
		<g>
			<polygon fill="#58395A" points="101.549,44.156 102.727,42.573 99.14,39.856 98.007,41.457 			"/>
		</g>
	</g>
</g>
<g>
	<g>
		<g>
			<path fill="#58395A" d="M98.101,41.517c0,0-0.869-0.581-1.206-1.822l1.862-0.728c0,0,0.278,0.856,0.639,1.099
				C99.755,40.309,98.101,41.517,98.101,41.517z"/>
		</g>
	</g>
</g>
<g>
	<g>
		<g>
			<path fill="#58395A" d="M103.817,39.251c0,0-0.142,0.439-0.33,0.703l1.18,1.581c0,0,0.684-0.645,1.017-1.553
				S103.817,39.251,103.817,39.251z"/>
		</g>
	</g>
</g>
<g>
	<g>
		<path stroke="#000000" stroke-miterlimit="10" d="M104.582,42.004"/>
	</g>
</g>
<g>
	<g>
		<g>
			<path fill="#58395A" d="M110.936,48.272c0,0,1.171-1.71,2.095-2.144l1.111,1.947c0,0-0.401-0.043-1.489,1.513L110.936,48.272z"/>
		</g>
	</g>
</g>
<g>
	<g>
		<g>
			<g>
				<path fill="#58395A" d="M116.91,56.195c0.753-0.228,1.46-0.645,2.059-1.233c1.406-1.381,1.988-3.46,1.519-5.425
					c-0.459-1.921-1.87-3.429-3.682-3.938c-1.693-0.475-3.45-0.006-4.7,1.255l1.602,1.589c0.675-0.681,1.583-0.925,2.489-0.671
					c1.04,0.292,1.824,1.148,2.097,2.29c0.287,1.2-0.061,2.461-0.906,3.291c-0.686,0.674-1.573,0.933-2.432,0.712l-0.563,2.185
					C115.233,56.466,116.099,56.44,116.91,56.195z"/>
			</g>
		</g>
	</g>
</g>
<g>
	<g>
		<g>
			<g>
				<path fill="#58395A" d="M112.397,55.497c-0.363-0.279-0.74-0.55-1.079-0.852c-0.124-0.112-0.239-0.348-0.203-0.489
					s0.246-0.302,0.408-0.339c0.445-0.099,0.901-0.151,1.356-0.218l0.032,0.092c0.088,0.213,0.331,0.328,0.565,0.257
					c0.209-0.063,0.345-0.262,0.334-0.466l0.003-0.005c0.003-0.028,0.007-0.053,0.023-0.066c0.274-0.212,0.819-0.098,0.999,0.224
					c0.127,0.225,0.244,0.456,0.322,0.7c0.066,0.22,0.194,0.318,0.377,0.389c-0.098,0.352-0.203,0.706-0.314,1.053
					c-0.267,0.002-0.582,0.27-0.84,0.458c-0.572,0.409-0.756,0.397-1.228-0.19c-0.001-0.004,0-0.012-0.001-0.015
					c0.066-0.106,0.085-0.238,0.047-0.364c-0.074-0.245-0.339-0.381-0.587-0.306c-0.047,0.014-0.088,0.034-0.123,0.061l-0.004,0.001
					c-0.005-0.003-0.008-0.001-0.013-0.004c-0.003,0.005-0.001,0.008-0.004,0.013l0.001,0.004L112.397,55.497z"/>
			</g>
		</g>
	</g>
</g>
<g>
	<g>
		<g>
			<g>
				<path fill="#58395A" d="M111.48,54.221c0,0-0.338-0.055-0.365-0.066c-0.026-0.01-0.397-0.04-0.61-0.265
					c0,0,0.363,0.147,0.443,0.133c0,0-0.293-0.173-0.286-0.29c0,0,0.293,0.233,0.488,0.271c0,0,0.256,0.076,0.368,0.097
					L111.48,54.221z"/>
			</g>
		</g>
	</g>
</g>
<g>
	<g>
		<g>
			<path fill="#58395A" d="M91.688,47.805c0,0-1.171-1.71-2.095-2.144l-1.047,2.004c0,0,0.214,0.134,1.336,1.497L91.688,47.805z"/>
		</g>
	</g>
</g>
<g>
	<g>
		<g>
			<g>
				<path fill="#58395A" d="M85.714,55.727c-0.753-0.228-1.46-0.645-2.059-1.233c-1.406-1.381-1.988-3.46-1.519-5.425
					c0.459-1.921,1.87-3.429,3.682-3.938c1.693-0.475,3.45-0.006,4.7,1.255l-1.602,1.589c-0.675-0.681-1.583-0.925-2.489-0.671
					c-1.04,0.292-1.824,1.148-2.097,2.29c-0.287,1.2,0.061,2.461,0.906,3.291c0.686,0.674,1.573,0.933,2.432,0.712l0.563,2.185
					C87.391,55.998,86.525,55.973,85.714,55.727z"/>
			</g>
		</g>
	</g>
</g>
<g>
	<g>
		<g>
			<g>
				<path fill="#58395A" d="M90.227,55.029c0.363-0.279,0.74-0.55,1.079-0.852c0.124-0.112,0.239-0.348,0.203-0.489
					s-0.246-0.302-0.408-0.339c-0.445-0.099-0.901-0.151-1.356-0.218l-0.032,0.092c-0.088,0.213-0.331,0.328-0.565,0.257
					c-0.209-0.063-0.345-0.262-0.334-0.466l-0.003-0.005c-0.003-0.028-0.007-0.053-0.023-0.066
					c-0.274-0.212-0.819-0.098-0.999,0.224c-0.127,0.225-0.244,0.456-0.322,0.7c-0.066,0.22-0.194,0.318-0.377,0.389
					c0.098,0.352,0.203,0.706,0.314,1.053c0.267,0.002,0.582,0.27,0.84,0.458c0.572,0.409,0.756,0.397,1.228-0.19
					c0.001-0.004,0-0.012,0.001-0.015c-0.066-0.106-0.085-0.238-0.047-0.364c0.074-0.245,0.339-0.381,0.587-0.306
					c0.047,0.014,0.088,0.034,0.123,0.061l0.004,0.001c0.005-0.003,0.008-0.001,0.013-0.004c0.003,0.005,0.001,0.008,0.004,0.013
					l-0.001,0.004L90.227,55.029z"/>
			</g>
		</g>
	</g>
</g>
<g>
	<g>
		<g>
			<g>
				<path fill="#58395A" d="M91.144,53.754c0,0,0.338-0.055,0.365-0.066c0.026-0.01,0.397-0.04,0.61-0.265
					c0,0-0.363,0.147-0.443,0.133c0,0,0.293-0.173,0.286-0.29c0,0-0.293,0.233-0.488,0.271c0,0-0.256,0.076-0.368,0.097
					L91.144,53.754z"/>
			</g>
		</g>
	</g>
</g>
<g>
	<g>
		<path fill="#CCE6DC" d="M103.755,64.233L89.463,48.766l1.825-1.567l0.061,0.067l14.152,15.358L103.755,64.233z M89.733,48.782
			l14.033,15.186l1.481-1.368L91.272,47.46L89.733,48.782z"/>
	</g>
</g>
<g>
	<g>
		<path fill="#58395A" d="M89.882,54.376c0.005,0.015,0.006,0.03,0.007,0.045c0.001,0.019,0.003,0.034-0.004,0.053"/>
	</g>
</g>
<g>
	<g>
		<path fill="#58395A" d="M91.017,55.972c-0.028-0.017-0.059-0.026-0.089-0.031"/>
	</g>
</g>
<g>
	<g>
		<polygon fill="#CCE6DC" points="105.379,62.604 103.761,64.1 89.588,48.681 91.28,47.329 		"/>
	</g>
</g>
<g>
	<g>
		<g>
			<path fill="#CCE6DC" d="M101.882,61.755l-1.783-1.594l11.952-13.368l1.783,1.594L101.882,61.755z M100.364,60.146l1.503,1.344
				l11.702-13.087l-1.503-1.344L100.364,60.146z"/>
		</g>
	</g>
</g>
<g>
	<g>
		<g>
			
				<rect x="105.858" y="45.404" transform="matrix(0.7455 0.6665 -0.6665 0.7455 63.3964 -57.476)" fill="#CCE6DC" width="2.204" height="17.744"/>
		</g>
	</g>
</g>
<g>
	<g>
		<g>
			<g>
				<path fill="#CCE6DC" d="M105.773,68.191c-0.855,1.34-2.331,2.183-3.962,2.307c-0.073,0.006-0.146,0.009-0.224,0.008
					l-0.191-2.195c1.061,0.007,1.994-0.475,2.525-1.306c0.496-0.776,0.526-1.691,0.083-2.514l1.937-1.041
					C106.763,64.973,106.7,66.745,105.773,68.191z"/>
			</g>
		</g>
	</g>
</g>
<g>
	<g>
		<g>
			<g>
				<path fill="#CCE6DC" d="M97.504,68.912c1.074,1.173,2.673,1.747,4.301,1.587c0.073-0.006,0.146-0.016,0.222-0.03l-0.191-2.195
					c-1.043,0.19-2.046-0.124-2.713-0.849c-0.622-0.678-0.811-1.575-0.516-2.461l-2.088-0.69
					C95.974,65.913,96.342,67.647,97.504,68.912z"/>
			</g>
		</g>
	</g>
</g>
<g>
	<g>
		<g>
			<g>
				<polygon fill="#CCE6DC" points="100.957,59.427 102.395,61.024 98.743,64.311 97.346,62.748 				"/>
			</g>
		</g>
	</g>
</g>
<g>
	<g>
		<g>
			<g>
				<path fill="#CCE6DC" d="M104.769,61.964c0,0,0.87,0.562,1.352,1.874l-1.965,0.961c0,0-0.396-0.782-0.812-1.011
					C102.928,63.559,104.769,61.964,104.769,61.964z"/>
			</g>
		</g>
	</g>
</g>
<g>
	<g>
		<g>
			<path fill="#CCE6DC" d="M98.607,64.962c0,0,0.114-0.488,0.295-0.791l-1.417-1.55c0,0-0.79,0.701-0.983,1.724
				C96.307,65.379,98.607,64.962,98.607,64.962z"/>
		</g>
	</g>
</g>
<path fill="#FFFFFF" d="M66.327,214.777v-8.885h0.825v3.576c0.346-0.424,0.732-0.741,1.16-0.952c0.427-0.21,0.897-0.315,1.406-0.315
	c0.906,0,1.681,0.329,2.322,0.987s0.962,1.456,0.962,2.395c0,0.927-0.324,1.719-0.971,2.374c-0.647,0.656-1.427,0.984-2.337,0.984
	c-0.521,0-0.995-0.112-1.418-0.336c-0.424-0.224-0.798-0.56-1.124-1.008v1.178h-0.825V214.777z M69.627,214.146
	c0.459,0,0.882-0.113,1.27-0.339c0.388-0.226,0.696-0.543,0.926-0.952c0.229-0.409,0.344-0.841,0.344-1.296s-0.116-0.89-0.347-1.302
	c-0.232-0.412-0.542-0.734-0.932-0.963c-0.39-0.23-0.806-0.345-1.249-0.345c-0.451,0-0.879,0.115-1.284,0.345
	c-0.406,0.23-0.717,0.539-0.935,0.928c-0.217,0.389-0.326,0.827-0.326,1.314c0,0.742,0.244,1.363,0.732,1.862
	C68.313,213.897,68.914,214.146,69.627,214.146z"/>
<path fill="#FFFFFF" d="M75.023,208.366h0.872l2.203,4.937l2.14-4.937h0.878l-3.824,8.756H76.42l1.233-2.83L75.023,208.366z"/>
<path fill="#FFFFFF" d="M87.411,206.11h0.943l2.872,6.696l2.919-6.696h0.943l-3.771,8.667h-0.189L87.411,206.11z"/>
<path fill="#FFFFFF" d="M97.626,206.11h0.866v8.667h-0.866V206.11z"/>
<path fill="#FFFFFF" d="M101.679,206.11h1.726c0.99,0,1.658,0.043,2.003,0.13c0.495,0.122,0.9,0.372,1.214,0.751
	c0.314,0.379,0.471,0.855,0.471,1.429c0,0.577-0.153,1.054-0.46,1.429c-0.306,0.375-0.729,0.627-1.267,0.757
	c-0.393,0.094-1.127,0.141-2.204,0.141h-0.619v4.03h-0.866v-8.667H101.679z M102.545,206.958v2.94l1.467,0.018
	c0.593,0,1.027-0.054,1.302-0.162c0.275-0.107,0.491-0.282,0.648-0.523c0.157-0.241,0.236-0.511,0.236-0.808
	c0-0.29-0.079-0.556-0.236-0.796c-0.157-0.242-0.364-0.412-0.622-0.515s-0.679-0.153-1.264-0.153h-1.531V206.958z"/>
<path fill="#FFFFFF" d="M110.039,206.11h4.967v0.848h-4.101v2.716h4.065v0.848h-4.065v3.406h4.065v0.848h-4.932L110.039,206.11
	L110.039,206.11z"/>
<path fill="#FFFFFF" d="M117.756,206.11h1.726c0.962,0,1.614,0.039,1.956,0.118c0.515,0.118,0.933,0.371,1.255,0.758
	c0.322,0.388,0.483,0.864,0.483,1.431c0,0.472-0.111,0.887-0.333,1.245c-0.222,0.357-0.539,0.628-0.952,0.811
	c-0.412,0.183-0.982,0.276-1.709,0.28l3.117,4.024h-1.071l-3.117-4.024h-0.49v4.024h-0.866L117.756,206.11L117.756,206.11z
	 M118.623,206.958v2.946l1.493,0.012c0.578,0,1.007-0.055,1.284-0.165c0.277-0.11,0.493-0.286,0.649-0.527
	c0.155-0.242,0.233-0.512,0.233-0.81c0-0.291-0.079-0.555-0.236-0.792c-0.158-0.238-0.364-0.408-0.62-0.51
	c-0.256-0.102-0.682-0.153-1.275-0.153h-1.528V206.958z"/>
<path fill="#FFFFFF" d="M129.78,206.11l4.042,8.667h-0.936l-1.363-2.852h-3.734l-1.35,2.852h-0.966l4.095-8.667L129.78,206.11
	L129.78,206.11z M129.671,207.951l-1.486,3.137h2.964L129.671,207.951z"/>
<rect x="131.945" y="210.684" fill="#CCE6DC" width="36.402" height="1.311"/>
<rect x="30.311" y="210.684" fill="#CCE6DC" width="36.404" height="1.311"/>
<image overflow="visible" enable-background="new    " width="1120" height="186" xlink:href="../Screen Shot 2015-11-02 at 7.16.51 PM.png"  transform="matrix(0.1926 0 0 0.1926 -6.1555 246.5874)">
</image>
<image overflow="visible" enable-background="new    " width="654" height="64" xlink:href="../Screen Shot 2015-11-02 at 7.20.50 PM.png"  transform="matrix(0.3795 0 0 0.3795 -28.9227 291.8583)">
</image>
</svg>
